<?xml version="1.0" standalone="no"?>
<!DOCTYPE svg PUBLIC "-//W3C//DTD SVG 1.0//EN" "http://www.w3.org/TR/2001/REC-SVG-20010904/DTD/svg10.dtd">
<svg xmlns="http://www.w3.org/2000/svg" xmlns:xlink="http://www.w3.org/1999/xlink" id="body_1" width="51" height="38">

<g transform="matrix(0.06333333 0 0 0.06333333 0.16666749 -0)">
    <path d="M399.8 549.7C 544 549.7 660.8 437.7 660.8 299.6C 660.8 161.5 544 49.5 399.8 49.5C 255.59999 49.5 138.79999 161.5 138.79999 299.6C 138.79999 437.7 255.7 549.7 399.8 549.7z" stroke="none" fill="#FF060A" fill-rule="nonzero" />
    <path d="M546.6 254.7C 532.19995 241.9 512.19995 222.4 495.99997 208.6L495.99997 208.6L494.99997 208C 493.39996 206.8 491.59998 205.8 489.69998 205.1C 450.49997 198.1 268.09998 165.40001 264.59998 165.8C 263.59998 165.90001 262.59998 166.3 261.8 166.8L261.8 166.8L260.9 167.5C 259.8 168.6 258.9 169.9 258.4 171.4L258.4 171.4L258.19998 172L258.19998 175.3L258.19998 175.8C 278.69998 230.6 359.8 410 375.8 452.2C 376.8 455.1 378.59998 460.5 382 460.80002L382 460.80002L382.8 460.80002C 384.59998 460.80002 392.4 450.90002 392.4 450.90002C 392.4 450.90002 531.7 289.10004 545.8 271.90002C 547.6 269.80002 549.2 267.50003 550.6 265.10004C 551 263.20004 550.8 261.30005 550.1 259.50003C 549.39996 257.7 548.1 256 546.6 254.7zM428 273.6L487.4 226.40001L522.3 257.2L428 273.6zM404.9 270.5L302.59998 190.1L468.19998 219.40001L404.9 270.5zM414.1 291.5L518.8 275.3L399.1 413.6L414.1 291.5zM288.7 198.2L396.40002 285.7L380.80002 413.7L288.7 198.2z" stroke="none" fill="#FFFFFF" fill-rule="nonzero" />
</g>
</svg>